<svg width="146" height="146" viewBox="0 0 146 146" fill="none" xmlns="http://www.w3.org/2000/svg">
<path d="M140.365 5.1026C142.52 7.18753 143.984 9.27245 144.757 11.3574C145.586 13.3874 146 15.2803 146 17.0361C146 18.5175 145.779 19.8617 145.337 21.0688C144.95 22.2758 144.536 23.3183 144.094 24.1962C143.487 25.1838 142.851 26.0891 142.188 26.9121C141.857 27.351 141.387 27.9271 140.78 28.6403C140.172 29.2987 139.537 30.012 138.874 30.7802C138.211 31.4934 137.548 32.2067 136.885 32.9199C136.278 33.5783 135.781 34.127 135.394 34.5659C134.51 35.3341 133.516 35.7181 132.411 35.7181C131.306 35.7181 130.257 35.2792 129.262 34.4013L112.11 17.4476C111.226 16.5697 110.784 15.5272 110.784 14.3202C110.784 13.168 111.199 12.1804 112.027 11.3574C112.414 10.9733 112.911 10.4521 113.519 9.79368C114.182 9.13528 114.872 8.47688 115.59 7.81848C116.308 7.16008 116.999 6.52912 117.662 5.92559C118.325 5.32206 118.905 4.82827 119.402 4.4442C120.286 3.6212 121.28 2.8805 122.385 2.2221C123.324 1.67343 124.429 1.17962 125.699 0.740686C126.97 0.246886 128.351 0 129.842 0C131.389 0 133.046 0.384069 134.814 1.1522C136.582 1.86547 138.432 3.18227 140.365 5.1026ZM121.888 49.133L40.6016 129.869L16.2406 105.673L97.5267 24.9369L121.888 49.133ZM0 146L8.28604 121.886L24.1952 138.511L0 146Z" fill="black"/>
</svg>
