<svg width="85" height="136" viewBox="0 0 85 136" fill="none" xmlns="http://www.w3.org/2000/svg">
<path d="M66.8514 90.8583C66.9323 92.5688 65.5673 94 63.8548 94H23.1452C21.4327 94 20.0677 92.5689 20.1486 90.8583L24.3108 2.85828C24.3864 1.25831 25.7057 0 27.3074 0H59.6926C61.2943 0 62.6136 1.2583 62.6892 2.85827L66.8514 90.8583Z" fill="black"/>
<path d="M42.5 136L39.4689 85H45.5311L42.5 136Z" fill="black"/>
<path d="M41.1522 83.1019L1.85512 2.6584C1.36833 1.66192 2.09387 0.5 3.2029 0.5L81.7971 0.5C82.9061 0.5 83.6317 1.66192 83.1449 2.6584L43.8478 83.1019C43.2996 84.224 41.7004 84.224 41.1522 83.1019Z" fill="black" stroke="black"/>
</svg>
