<svg width="145" height="146" viewBox="0 0 145 146" fill="none" xmlns="http://www.w3.org/2000/svg">
<circle cx="72.5" cy="73.5" r="25.5" stroke="#838383" stroke-width="8"/>
<circle cx="72.5" cy="73.5" r="49.5" stroke="#838383" stroke-width="8"/>
<path d="M48.5 31.5L34.6737 22.9182C34.2791 22.6732 33.7677 22.7323 33.4393 23.0607L21.5744 34.9256C21.2397 35.2603 21.1855 35.7838 21.4446 36.1799L29.5 48.5" stroke="#838383" stroke-width="8"/>
<path d="M85.3115 26.9285L81.7657 11.0464C81.6645 10.593 81.2645 10.2691 80.8 10.2643L64.0214 10.0923C63.5481 10.0875 63.1363 10.4151 63.0345 10.8774L59.8715 25.2534" stroke="#838383" stroke-width="8"/>
<path d="M115.023 49.5074L123.593 35.6741C123.838 35.2792 123.778 34.7679 123.45 34.4397L111.575 22.5847C111.24 22.2503 110.716 22.1965 110.32 22.4559L98.007 30.5215" stroke="#838383" stroke-width="8"/>
<path d="M118.876 86.375L134.764 82.8568C135.218 82.7563 135.542 82.3569 135.548 81.8924L135.749 65.1142C135.755 64.6409 135.428 64.2284 134.966 64.1259L120.595 60.938" stroke="#838383" stroke-width="8"/>
<path d="M96.2533 114.993L109.833 123.961C110.22 124.217 110.733 124.172 111.071 123.853L123.265 112.327C123.609 112.002 123.677 111.48 123.43 111.077L115.724 98.5346" stroke="#838383" stroke-width="8"/>
<path d="M59.3578 120.033L63.0816 135.874C63.1879 136.326 63.5916 136.645 64.0561 136.645L80.8355 136.629C81.3088 136.628 81.717 136.296 81.8135 135.832L84.815 121.422" stroke="#838383" stroke-width="8"/>
<path d="M30.1377 98.0451L21.4867 111.828C21.2398 112.222 21.2963 112.733 21.6231 113.063L33.4283 124.988C33.7613 125.324 34.2845 125.381 34.682 125.124L47.0423 117.13" stroke="#838383" stroke-width="8"/>
<path d="M25.602 60.2638L9.81695 64.2191C9.36639 64.332 9.05288 64.7403 9.06013 65.2048L9.3221 81.9821C9.32949 82.4554 9.66768 82.8587 10.1324 82.9484L24.5854 85.7386" stroke="#838383" stroke-width="8"/>
</svg>
