<svg width="87" height="139" viewBox="0 0 87 139" fill="none" xmlns="http://www.w3.org/2000/svg">
<path d="M82.8911 2H4.23607C2.7493 2 1.78231 3.56463 2.44721 4.89443L23.2646 46.5293C23.4189 46.8378 23.4908 47.1811 23.4732 47.5256L21.1072 93.8981C21.0489 95.0412 21.96 96 23.1046 96H38.6597C39.6999 96 40.5664 96.7973 40.6528 97.8339L44 138L45.9093 97.9049C45.9601 96.8385 46.8394 96 47.907 96H63.5C64.6046 96 65.5 95.1046 65.5 94V47.4341C65.5 47.148 65.5614 46.8653 65.68 46.605L84.7112 4.82913C85.3145 3.50478 84.3464 2 82.8911 2Z" stroke="black" stroke-width="3"/>
</svg>
